<?xml version="1.0" encoding="UTF-8"?>
<svg xmlns="http://www.w3.org/2000/svg" width="1920" height="1080" viewBox="0 0 1920 1080">
    <rect width="1920" height="1080" fill="#F0EEE6"/>
    <text x="960" y="580" text-anchor="middle" font-family="Georgia, 'Times New Roman', serif" font-size="300" font-weight="700" fill="#D97757">8</text>
    <text x="960" y="720" text-anchor="middle" font-family="'Helvetica Neue', Arial, sans-serif" font-size="48" fill="#3D3D3A">branded assets generated from one config</text>
    
    <g><path d="M132.08,1001.04 L131.87,986.00 A1.87,1.87 0 0 1 128.13,986.00 L127.92,1001.04 A2.08,2.08 0 0 1 132.08,1001.04 Z" fill="#D97757"/><path d="M131.93,1002.10 L136.64,994.47 A1.51,1.51 0 0 1 134.09,992.84 L129.11,1000.28 A1.68,1.68 0 0 1 131.93,1002.10 Z" fill="#D97757"/><path d="M131.74,1003.49 L145.33,997.06 A1.87,1.87 0 0 1 143.78,993.65 L130.01,999.71 A2.08,2.08 0 0 1 131.74,1003.49 Z" fill="#D97757"/><path d="M130.71,1003.80 L139.60,1004.91 A1.51,1.51 0 0 1 140.03,1001.92 L131.19,1000.47 A1.68,1.68 0 0 1 130.71,1003.80 Z" fill="#D97757"/><path d="M129.36,1004.20 L140.87,1013.89 A1.87,1.87 0 0 1 143.32,1011.06 L132.09,1001.06 A2.08,2.08 0 0 1 129.36,1004.20 Z" fill="#D97757"/><path d="M128.66,1003.39 L131.34,1011.94 A1.51,1.51 0 0 1 134.25,1011.09 L131.88,1002.45 A1.68,1.68 0 0 1 128.66,1003.39 Z" fill="#D97757"/><path d="M127.73,1002.34 L123.70,1016.82 A1.87,1.87 0 0 1 127.29,1017.88 L131.73,1003.51 A2.08,2.08 0 0 1 127.73,1002.34 Z" fill="#D97757"/><path d="M128.17,1001.36 L121.51,1007.35 A1.51,1.51 0 0 1 123.49,1009.64 L130.37,1003.90 A1.68,1.68 0 0 1 128.17,1001.36 Z" fill="#D97757"/><path d="M128.75,1000.08 L113.90,1002.42 A1.87,1.87 0 0 1 114.43,1006.13 L129.35,1004.20 A2.08,2.08 0 0 1 128.75,1000.08 Z" fill="#D97757"/><path d="M129.82,1000.07 L121.60,996.50 A1.51,1.51 0 0 1 120.35,999.25 L128.43,1003.13 A1.68,1.68 0 0 1 129.82,1000.07 Z" fill="#D97757"/><path d="M131.23,1000.07 L122.92,987.53 A1.87,1.87 0 0 1 119.77,989.55 L127.73,1002.32 A2.08,2.08 0 0 1 131.23,1000.07 Z" fill="#D97757"/></g>
    <text x="164" y="1008" font-family="'Helvetica Neue', Arial, sans-serif" font-size="22" fill="#3D3D3A" opacity="0.85">Claude</text>
    <text x="1790" y="1008" text-anchor="end" font-family="'Courier New', monospace" font-size="20" fill="#3D3D3A" opacity="0.6">4 / 6</text>
</svg>
